<?xml version="1.0" encoding="utf-8"?>
<!-- Generator: Adobe Illustrator 16.0.0, SVG Export Plug-In . SVG Version: 6.00 Build 0)  -->
<!DOCTYPE svg PUBLIC "-//W3C//DTD SVG 1.1//EN" "http://www.w3.org/Graphics/SVG/1.1/DTD/svg11.dtd">
<svg version="1.1" id="Wireless_1_" xmlns="http://www.w3.org/2000/svg" xmlns:xlink="http://www.w3.org/1999/xlink" x="0px"
	 y="0px" width="288px" height="288px" viewBox="0 0 288 288" enable-background="new 0 0 288 288" xml:space="preserve">
<g>
	<path fill="#B03D25" d="M144,14.743C72.728,14.743,14.743,72.728,14.743,144S72.728,273.257,144,273.257
		S273.257,215.272,273.257,144S215.272,14.743,144,14.743z M144,257.257C81.55,257.257,30.743,206.45,30.743,144
		S81.55,30.743,144,30.743S257.257,81.55,257.257,144S206.45,257.257,144,257.257z"/>
	<path fill="#B03D25" d="M146.066,188.958c-0.929-0.166-1.871-0.303-2.093-0.303c-1.318,0-4.008,0.724-5.403,1.457
		c-3.293,1.725-5.854,5.398-6.424,9.213c-0.198,1.323,0.081,4.038,0.506,4.921c0.12,0.25,0.496,1.03,0.836,1.733
		c0.655,1.356,3.16,3.983,4.464,4.684c0.43,0.23,1.446,0.708,2.258,1.062c1.303,0.566,1.796,0.63,4.166,0.546
		c2.464-0.087,2.845-0.176,4.579-1.067c2.253-1.159,4.583-3.366,5.473-5.187c0.355-0.724,0.744-1.521,0.865-1.771
		c0.12-0.247,0.331-1.155,0.465-2.014C156.682,196.33,152.09,190.04,146.066,188.958z"/>
	<path fill="#B03D25" d="M182.137,167.779c0-0.543-7.058-6.997-9.429-8.622c-2.426-1.664-9.465-5.378-10.228-5.397
		c-0.201-0.003-0.85-0.241-1.44-0.527c-0.593-0.286-1.273-0.523-1.515-0.527c-0.242-0.006-0.786-0.19-1.21-0.41
		c-0.423-0.222-1.034-0.403-1.358-0.403c-0.323-0.002-0.656-0.112-0.74-0.247c-0.084-0.137-0.666-0.325-1.293-0.42
		c-0.626-0.096-1.987-0.347-3.022-0.559c-4.344-0.895-11.511-0.895-15.856,0c-1.034,0.212-2.395,0.463-3.022,0.559
		c-0.627,0.095-1.208,0.283-1.292,0.42c-0.084,0.135-0.385,0.245-0.672,0.245c-0.559,0-3.707,1.017-4.151,1.342
		c-0.148,0.108-0.631,0.282-1.076,0.385c-1.524,0.36-7.528,3.482-10.343,5.377c-2.813,1.896-9.028,7.596-9.812,8.999
		c-1.299,2.326-1.524,3.063-1.552,5.082c-0.023,1.652,0.087,2.275,0.558,3.134c0.324,0.589,0.588,1.199,0.588,1.355
		c0,0.554,3.191,3.556,4.404,4.143c0.676,0.327,2.05,0.677,3.05,0.78c3.561,0.357,5.412-0.519,9.697-4.593
		c1.67-1.591,3.161-2.893,3.309-2.893c0.149,0,0.656-0.29,1.126-0.645c2.546-1.919,7.238-3.714,11.74-4.49
		c2.676-0.462,7.944-0.464,10.616-0.002c2.257,0.39,6.202,1.438,7.034,1.868c0.271,0.14,0.975,0.477,1.564,0.75
		c0.593,0.271,1.879,1.01,2.858,1.643c0.98,0.63,1.892,1.146,2.023,1.146c0.131,0,1.264,1.036,2.516,2.303
		c3.8,3.838,5.532,4.849,8.715,5.078c2.743,0.199,6.569-1.766,8.07-4.145c0.362-0.571,0.77-1.11,0.906-1.195
		c0.139-0.085,0.452-0.977,0.699-1.98c0.557-2.272,0.252-4.712-0.784-6.277C182.443,168.488,182.137,167.916,182.137,167.779z"/>
	<path fill="#B03D25" d="M206.325,139.091c0-0.305-1.13-1.447-1.432-1.447c-0.145,0-1.425-1.127-2.846-2.504
		c-1.42-1.378-2.942-2.734-3.385-3.016c-0.441-0.28-1.97-1.386-3.396-2.455c-1.425-1.07-3.192-2.283-3.926-2.696
		c-0.733-0.412-2.469-1.432-3.858-2.265c-2.272-1.364-4.54-2.505-7.227-3.639c-0.519-0.218-1.639-0.751-2.491-1.183
		c-0.852-0.434-1.719-0.786-1.927-0.786c-0.207,0-0.719-0.175-1.138-0.387c-1.35-0.685-3.535-1.495-4.035-1.497
		c-0.269-0.001-0.799-0.163-1.177-0.36c-0.378-0.198-1.2-0.44-1.826-0.541c-0.625-0.101-1.344-0.289-1.596-0.42
		c-1.491-0.772-7.84-2.019-9.923-1.948c-0.475,0.017-0.928-0.077-1.008-0.207c-0.522-0.847-21.335-0.819-22.368,0.029
		c-0.176,0.145-0.539,0.233-0.807,0.197c-1.51-0.2-8.588,1.144-10.061,1.912c-0.241,0.125-0.905,0.308-1.479,0.406
		c-1.027,0.176-4.564,1.254-5.609,1.71c-0.296,0.128-1.083,0.441-1.747,0.694c-2.122,0.807-3.929,1.606-9.996,4.427
		c-0.694,0.322-1.558,0.817-1.917,1.102c-0.361,0.283-0.942,0.641-1.292,0.793c-0.35,0.153-0.958,0.488-1.352,0.745
		c-0.393,0.257-1.293,0.817-2,1.246c-6.054,3.68-15.964,12.288-15.964,13.868c0,0.176-0.27,0.698-0.599,1.161
		c-0.823,1.154-1.011,4.172-0.348,5.542c1.385,2.857,1.701,3.382,2.599,4.316c1.027,1.065,3.412,2.417,4.266,2.417
		c0.275,0,0.584,0.137,0.687,0.304c0.122,0.196,0.813,0.258,1.99,0.174c2.424-0.174,4.481-1.179,6.968-3.401
		c4.517-4.033,9.237-7.729,11.06-8.658c0.657-0.334,1.616-0.919,2.134-1.299c1.03-0.756,1.416-0.954,5.8-2.957
		c1.639-0.749,3.121-1.362,3.295-1.362s0.527-0.11,0.785-0.245c0.256-0.136,1.131-0.506,1.944-0.821
		c0.813-0.315,1.721-0.672,2.017-0.79c0.295-0.118,1.687-0.481,3.09-0.806c1.404-0.325,3.279-0.76,4.166-0.967
		c3.41-0.793,6.834-1.061,13.572-1.061c6.604,0.001,11.09,0.368,13.976,1.144c0.517,0.14,2.149,0.526,3.628,0.861
		c2.78,0.63,2.922,0.675,5.024,1.595c0.693,0.305,1.443,0.552,1.664,0.552s0.469,0.107,0.549,0.239
		c0.082,0.132,0.482,0.321,0.89,0.424c0.408,0.1,1.648,0.608,2.759,1.129c1.108,0.521,2.317,1.072,2.686,1.226
		c1.315,0.546,2.836,1.37,3.679,1.994c0.47,0.348,1.136,0.754,1.479,0.901c0.92,0.396,3.502,2.144,3.981,2.694
		c0.074,0.085,0.559,0.445,1.075,0.803c1.103,0.758,3.285,2.607,6.19,5.243c2.261,2.05,4.006,3.063,5.66,3.285
		c0.585,0.077,1.135,0.257,1.222,0.398c0.181,0.293,1.98,0.027,2.367-0.351c0.142-0.136,0.467-0.248,0.726-0.248
		c1.254,0,4.878-2.606,5.519-3.968c0.19-0.404,0.453-0.917,0.588-1.137c0.76-1.261,0.977-2.155,0.977-4.007
		c0-2.152-0.399-3.376-1.646-5.048C206.614,139.678,206.325,139.202,206.325,139.091z"/>
	<path fill="#B03D25" d="M232.368,113.619c-0.282-0.46-0.688-1.212-0.903-1.673c-0.214-0.461-1.453-1.811-2.753-3.001
		c-2.747-2.514-9.549-8.043-11.502-9.349c-0.738-0.494-1.947-1.33-2.687-1.856c-0.739-0.527-1.991-1.348-2.784-1.826
		c-0.792-0.478-1.759-1.079-2.15-1.336c-0.391-0.257-0.892-0.547-1.113-0.646c-0.222-0.098-0.584-0.332-0.807-0.52
		c-0.221-0.188-1.007-0.661-1.747-1.054c-0.738-0.393-2.068-1.123-2.956-1.624c-2.495-1.409-5.415-2.812-5.854-2.812
		c-0.218,0-0.546-0.182-0.731-0.403c-0.184-0.222-0.471-0.403-0.637-0.403c-0.167-0.001-1.144-0.425-2.169-0.941
		c-1.026-0.517-2.026-0.94-2.221-0.94c-0.196,0-0.565-0.112-0.822-0.251c-0.979-0.528-2.308-1.093-2.592-1.101
		c-0.161-0.006-0.776-0.243-1.368-0.529c-0.592-0.285-1.263-0.523-1.491-0.528c-0.23-0.005-0.532-0.112-0.673-0.239
		c-0.226-0.203-2.678-0.999-6.303-2.046c-0.665-0.193-1.934-0.498-2.821-0.679c-0.888-0.18-1.916-0.431-2.284-0.557
		c-0.37-0.126-1.156-0.305-1.748-0.397c-0.59-0.092-1.484-0.294-1.986-0.447c-0.891-0.273-3.909-0.786-7.688-1.306
		c-1.035-0.143-2.593-0.386-3.462-0.541c-2.569-0.46-9.4-0.91-13.873-0.915c-4.462-0.005-12.093,0.482-14.514,0.927
		c-0.813,0.149-2.384,0.396-3.493,0.55c-3.569,0.491-10.243,1.744-11.289,2.118c-0.369,0.133-1.397,0.383-2.284,0.557
		c-0.888,0.173-2.157,0.478-2.823,0.677c-4.676,1.4-6.078,1.858-6.302,2.06c-0.141,0.127-0.442,0.231-0.672,0.232
		c-0.229,0-0.764,0.182-1.186,0.402c-0.424,0.221-0.889,0.401-1.036,0.401c-0.288,0-1.78,0.613-2.987,1.226
		c-0.419,0.213-0.91,0.387-1.091,0.387c-0.181,0-1.168,0.424-2.195,0.94s-1.977,0.94-2.113,0.941c-0.136,0-0.44,0.156-0.672,0.349
		c-0.233,0.19-1.089,0.572-1.902,0.846c-0.813,0.274-1.643,0.627-1.843,0.783c-0.451,0.354-1.383,0.901-1.92,1.129
		c-0.222,0.094-0.523,0.222-0.672,0.284c-0.147,0.063-0.752,0.401-1.344,0.753s-1.619,0.916-2.285,1.254
		c-0.665,0.338-1.512,0.819-1.881,1.067c-2.56,1.724-4.049,2.673-4.191,2.673c-0.092,0-0.607,0.333-1.146,0.739
		c-0.54,0.407-1.183,0.86-1.428,1.008c-2.63,1.581-7.067,5.081-12.784,10.083c-2.771,2.425-3.352,3.137-4.922,6.035
		c-0.712,1.316-0.832,5.138-0.19,6.128c0.213,0.329,0.468,0.927,0.566,1.329c0.436,1.766,3.789,4.3,7.163,5.41
		c0.718,0.236,1.47,0.183,2.993-0.214c2.806-0.731,3.882-1.505,10.982-7.902c0.96-0.865,2.049-1.731,2.418-1.924
		c0.37-0.193,1.331-0.937,2.137-1.652c0.805-0.716,1.572-1.302,1.704-1.302s0.924-0.467,1.76-1.038
		c2.833-1.933,5.277-3.459,7.095-4.433c0.997-0.533,2.294-1.274,2.886-1.647s1.287-0.719,1.549-0.768
		c0.447-0.086,2.133-0.839,5.87-2.622c0.898-0.43,1.787-0.78,1.974-0.78s0.661-0.168,1.054-0.374s1.258-0.583,1.922-0.838
		c0.666-0.256,1.452-0.561,1.747-0.678c0.295-0.116,1.626-0.527,2.958-0.914c1.331-0.387,3.023-0.88,3.762-1.095
		c4.453-1.301,7.806-1.962,12.229-2.413c0.959-0.099,1.988-0.282,2.284-0.407c1.173-0.499,13.699-0.816,20.493-0.52
		c3.659,0.16,6.894,0.394,7.188,0.519c0.297,0.125,1.326,0.29,2.285,0.367c4.161,0.331,12.5,2.325,18.813,4.497
		c1.151,0.396,1.647,0.591,3.327,1.301c0.721,0.306,1.446,0.555,1.612,0.554c0.165,0,1.148,0.411,2.182,0.915
		c1.037,0.503,2.366,1.119,2.957,1.367c1.835,0.771,4.473,2.104,6.52,3.296c1.08,0.628,2.025,1.142,2.1,1.142
		c0.075,0,0.465,0.224,0.866,0.496c2.742,1.869,6.164,4.073,6.322,4.073c0.104,0,1.085,0.726,2.179,1.612s2.081,1.613,2.192,1.613
		c0.113,0,1.021,0.756,2.021,1.68c2.548,2.358,6.184,5.479,7.406,6.362c0.569,0.409,1.907,1.025,2.978,1.37
		c1.751,0.564,2.082,0.595,3.354,0.301c3.048-0.703,5.244-2.098,6.618-4.204c1.129-1.729,1.328-2.181,1.655-3.752
		C233.559,117.245,233.208,114.992,232.368,113.619z"/>
</g>
</svg>
